# xmcd CD database file
#
# Track frame offsets:
#	150
#	31877
#	53662
#	73167
#	154345
#	183292
#	209980
#	238352
#	308097
#
# Disc length: 4644 seconds
#
# Revision: 1
# Processed by: cddbd v1.5.2PL0 Copyright (c) Steve Scherf et al.
# Submitted via: CDex 1.51
#
DISCID=84122209
DTITLE=John Mayall and The Bluesbreakers And Friends - 70th Birthday Concert (Disc-2)
DYEAR=2004
DGENRE=Blues
TTITLE0=Please Mr Lofton - John Mayall, Eric Clapton and Chris Barber
TTITLE1=Hideaway - John Mayall and The Bluesbreakers with Eric Clapton and Chris Barber
TTITLE2=All Your Love - John Mayall and The Bluesbreakers with Eric Clapton
TTITLE3=Have You Heard - John Mayall and The Bluesbreakers with Eric Clapton
TTITLE4=Hooche Cooche Man - John Mayall and The Bluesbreakers with Eric Clapton, Chris Barber
TTITLE5=I'm Tore Down - John Mayall and The Bluesbreakers with Eric Clapton, Chris Barber
TTITLE6=It Ain't Right - John Mayall and The Bluesbreakers
TTITLE7=California - John Mayall and The Bluesbreakers with Mick Taylor, Chris Barber and Henry Lowther
TTITLE8=Talk To Your Daughter - John Mayall and The Bluesbreakers with Eric Clapton, Mick Taylor and Chris Barber
EXTD=YEAR: 2004
EXTT0=
EXTT1=
EXTT2=
EXTT3=
EXTT4=
EXTT5=
EXTT6=
EXTT7=
EXTT8=
PLAYORDER=
